<?xml version="1.0" encoding="UTF-8" standalone="no"?>
<!-- Created with Inkscape (http://www.inkscape.org/) -->

<svg
   width="511.99997"
   height="511.99997"
   viewBox="0 0 135.46665 135.46666"
   version="1.1"
   id="svg1"
   xml:space="preserve"
   inkscape:version="1.4 (e7c3feb100, 2024-10-09)"
   sodipodi:docname="deindex.svg"
   xmlns:inkscape="http://www.inkscape.org/namespaces/inkscape"
   xmlns:sodipodi="http://sodipodi.sourceforge.net/DTD/sodipodi-0.dtd"
   xmlns="http://www.w3.org/2000/svg"
   xmlns:svg="http://www.w3.org/2000/svg"><sodipodi:namedview
     id="namedview1"
     pagecolor="#000000"
     bordercolor="#ffffff"
     borderopacity="1"
     inkscape:showpageshadow="0"
     inkscape:pageopacity="0"
     inkscape:pagecheckerboard="1"
     inkscape:deskcolor="#ffffff"
     inkscape:document-units="mm"
     inkscape:clip-to-page="false"
     showgrid="false"
     inkscape:zoom="1.12"
     inkscape:cx="328.125"
     inkscape:cy="242.85714"
     inkscape:window-width="1900"
     inkscape:window-height="1025"
     inkscape:window-x="8"
     inkscape:window-y="8"
     inkscape:window-maximized="1"
     inkscape:current-layer="layer1"><inkscape:grid
       id="grid16"
       units="mm"
       originx="0"
       originy="0"
       spacingx="0.26458332"
       spacingy="0.26458334"
       empcolor="#0099e5"
       empopacity="0.30196078"
       color="#0099e5"
       opacity="0.14901961"
       empspacing="5"
       enabled="true"
       visible="false" /></sodipodi:namedview><defs
     id="defs1"><inkscape:path-effect
       effect="fillet_chamfer"
       id="path-effect39"
       is_visible="true"
       lpeversion="1"
       nodesatellites_param="F,0,0,1,0,21.40439,0,1 @ F,0,1,1,0,21.40439,0,1 @ F,0,1,1,0,21.40439,0,1 @ F,0,1,1,0,21.40439,0,1"
       radius="0"
       unit="px"
       method="auto"
       mode="F"
       chamfer_steps="1"
       flexible="false"
       use_knot_distance="true"
       apply_no_radius="true"
       apply_with_radius="true"
       only_selected="false"
       hide_knots="false" /><rect
       x="87.68124"
       y="206.47518"
       width="270.09882"
       height="116.49309"
       id="rect30" /><inkscape:path-effect
       effect="fillet_chamfer"
       id="path-effect30"
       is_visible="true"
       lpeversion="1"
       nodesatellites_param="F,0,1,1,0,4.0894394,0,1 @ F,0,0,1,0,4.0894394,0,1 @ F,0,1,1,0,4.0894394,0,1 @ F,0,1,1,0,4.0894394,0,1 @ F,0,1,1,0,4.0894394,0,1 @ F,0,1,1,0,4.0894394,0,1 @ F,0,1,1,0,4.0894394,0,1 @ F,0,1,1,0,4.0894394,0,1"
       radius="0"
       unit="px"
       method="auto"
       mode="F"
       chamfer_steps="1"
       flexible="false"
       use_knot_distance="true"
       apply_no_radius="true"
       apply_with_radius="true"
       only_selected="false"
       hide_knots="false" /><inkscape:path-effect
       effect="fillet_chamfer"
       id="path-effect27"
       is_visible="true"
       lpeversion="1"
       nodesatellites_param="F,0,0,1,0,0,0,1 @ F,0,0,1,0,0,0,1 @ F,0,0,1,0,0,0,1 @ F,0,0,1,0,0,0,1 @ F,0,0,1,0,0,0,1 @ F,0,0,1,0,0,0,1 @ F,0,0,1,0,0,0,1 @ F,0,0,1,0,0,0,1 @ F,0,0,1,0,0,0,1 @ F,0,0,1,0,0,0,1 @ F,0,0,1,0,0,0,1 @ F,0,0,1,0,0,0,1 @ F,0,0,1,0,0,0,1 @ F,0,0,1,0,0,0,1"
       radius="0"
       unit="px"
       method="auto"
       mode="F"
       chamfer_steps="1"
       flexible="false"
       use_knot_distance="true"
       apply_no_radius="true"
       apply_with_radius="true"
       only_selected="false"
       hide_knots="false" /><inkscape:path-effect
       effect="fillet_chamfer"
       id="path-effect26"
       is_visible="true"
       lpeversion="1"
       nodesatellites_param="F,0,0,1,0,0,0,1 @ F,0,0,1,0,0,0,1 @ F,0,0,1,0,0,0,1 @ F,0,0,1,0,0,0,1 @ F,0,0,1,0,0,0,1 @ F,0,0,1,0,0,0,1 @ F,0,0,1,0,0,0,1 @ F,0,0,1,0,0,0,1 @ F,0,0,1,0,0,0,1 @ F,0,0,1,0,0,0,1 @ F,0,0,1,0,0,0,1 @ F,0,0,1,0,0,0,1 @ F,0,0,1,0,0,0,1 @ F,0,0,1,0,0,0,1 @ F,0,0,1,0,0,0,1 @ F,0,0,1,0,0,0,1"
       radius="0"
       unit="px"
       method="auto"
       mode="F"
       chamfer_steps="1"
       flexible="false"
       use_knot_distance="true"
       apply_no_radius="true"
       apply_with_radius="true"
       only_selected="false"
       hide_knots="false" /><inkscape:path-effect
       effect="fillet_chamfer"
       id="path-effect25"
       is_visible="true"
       lpeversion="1"
       nodesatellites_param="F,0,0,1,0,0,0,1 @ F,0,0,1,0,0,0,1 @ F,0,0,1,0,0,0,1 @ F,0,0,1,0,0,0,1 @ F,0,0,1,0,0,0,1 @ F,0,0,1,0,0,0,1 @ F,0,0,1,0,0,0,1 @ F,0,0,1,0,0,0,1 @ F,0,0,1,0,0,0,1 @ F,0,0,1,0,0,0,1 @ F,0,0,1,0,0,0,1 @ F,0,0,1,0,0,0,1 @ F,0,0,1,0,0,0,1 @ F,0,0,1,0,0,0,1 @ F,0,0,1,0,0,0,1 @ F,0,0,1,0,0,0,1"
       radius="0"
       unit="px"
       method="auto"
       mode="F"
       chamfer_steps="1"
       flexible="false"
       use_knot_distance="true"
       apply_no_radius="true"
       apply_with_radius="true"
       only_selected="false"
       hide_knots="false" /><inkscape:path-effect
       effect="fillet_chamfer"
       id="path-effect24"
       is_visible="true"
       lpeversion="1"
       nodesatellites_param="F,0,0,1,0,0,0,1 @ F,0,0,1,0,0,0,1 @ F,0,0,1,0,0,0,1 @ F,0,0,1,0,0,0,1 @ F,0,0,1,0,0,0,1 @ F,0,0,1,0,0,0,1 @ F,0,0,1,0,0,0,1 @ F,0,0,1,0,0,0,1 @ F,0,0,1,0,0,0,1 @ F,0,0,1,0,0,0,1 @ F,0,0,1,0,0,0,1 @ F,0,0,1,0,0,0,1 @ F,0,0,1,0,0,0,1 @ F,0,0,1,0,0,0,1 @ F,0,0,1,0,0,0,1 @ F,0,0,1,0,0,0,1"
       radius="0"
       unit="px"
       method="auto"
       mode="F"
       chamfer_steps="1"
       flexible="false"
       use_knot_distance="true"
       apply_no_radius="true"
       apply_with_radius="true"
       only_selected="false"
       hide_knots="false" /><inkscape:path-effect
       effect="fillet_chamfer"
       id="path-effect23"
       is_visible="true"
       lpeversion="1"
       nodesatellites_param="F,0,0,1,0,0,0,1 @ F,0,0,1,0,0,0,1 @ F,0,0,1,0,0,0,1 @ F,0,0,1,0,0,0,1 @ F,0,0,1,0,0,0,1 @ F,0,0,1,0,0,0,1 @ F,0,0,1,0,0,0,1 @ F,0,0,1,0,0,0,1 @ F,0,0,1,0,0,0,1 @ F,0,0,1,0,0,0,1 @ F,0,0,1,0,0,0,1 @ F,0,0,1,0,0,0,1 @ F,0,0,1,0,0,0,1 @ F,0,0,1,0,0,0,1 @ F,0,0,1,0,0,0,1 @ F,0,0,1,0,0,0,1"
       radius="0"
       unit="px"
       method="auto"
       mode="F"
       chamfer_steps="1"
       flexible="false"
       use_knot_distance="true"
       apply_no_radius="true"
       apply_with_radius="true"
       only_selected="false"
       hide_knots="false" /><inkscape:path-effect
       effect="lattice2"
       gridpoint0="36.967772,70.756084"
       gridpoint1="98.497007,70.756084"
       gridpoint2="36.967772,103.10876"
       gridpoint3="98.497007,103.10876"
       gridpoint4="52.350081,70.756084"
       gridpoint5="83.114698,70.756084"
       gridpoint6="52.350081,103.10876"
       gridpoint7="83.114698,103.10876"
       gridpoint8x9="67.732389,70.756084"
       gridpoint10x11="67.732389,103.10876"
       gridpoint12="36.967772,78.844253"
       gridpoint13="98.497007,78.844253"
       gridpoint14="36.967772,95.020591"
       gridpoint15="98.497007,95.020591"
       gridpoint16="47.911598,77.388131"
       gridpoint17="87.55318,77.388131"
       gridpoint18="47.911598,96.476714"
       gridpoint19="87.55318,96.476714"
       gridpoint20x21="65.821544,78.844253"
       gridpoint22x23="65.821544,95.020591"
       gridpoint24x26="36.967772,86.932422"
       gridpoint25x27="98.497007,86.932422"
       gridpoint28x30="51.440154,84.34525"
       gridpoint29x31="84.024625,84.34525"
       gridpoint32x33x34x35="72.456976,84.961066"
       id="path-effect22"
       is_visible="true"
       lpeversion="1"
       horizontal_mirror="false"
       vertical_mirror="false"
       perimetral="false"
       live_update="true" /><inkscape:path-effect
       effect="envelope"
       id="path-effect21"
       is_visible="true"
       lpeversion="1"
       yy="true"
       xx="false"
       bendpath1="m 40.513273,70.829913 54.327434,-0.07383"
       bendpath2="M 95.849963,69.944051 V 100.51738"
       bendpath3="m 36.967772,103.10876 c 23.682358,-0.0218 36.63384,0.22755 61.529235,-0.0369"
       bendpath4="M 39.616703,69.944051 V 100.51738"
       bendpath3-nodetypes="cc"
       bendpath1-nodetypes="cc" /><inkscape:path-effect
       effect="envelope"
       id="path-effect20"
       is_visible="true"
       lpeversion="1"
       yy="true"
       xx="true"
       bendpath1="M 36.967772,70.756084 H 98.497007"
       bendpath2="M 98.497007,70.756084 V 103.10876"
       bendpath3="M 36.967772,103.10876 H 98.497007"
       bendpath4="M 36.967772,70.756084 V 103.10876" /><inkscape:path-effect
       effect="powerstroke"
       message=""
       id="path-effect19"
       is_visible="true"
       lpeversion="1.3"
       scale_width="0.78740157"
       interpolator_type="CentripetalCatmullRom"
       interpolator_beta="0.2"
       start_linecap_type="zerowidth"
       end_linecap_type="zerowidth"
       offset_points="8,0.75936002"
       linejoin_type="round"
       miter_limit="4"
       not_jump="false"
       sort_points="true" /><filter
       style="color-interpolation-filters:sRGB;"
       inkscape:label="Invert"
       id="filter30"
       x="0"
       y="0"
       width="1"
       height="1"><feColorMatrix
         values="1 0 0 0 0 0 1 0 0 0 0 0 1 0 0 -0.21 -0.72 -0.07 2 0 "
         result="fbSourceGraphic"
         id="feColorMatrix30" /><feColorMatrix
         result="fbSourceGraphicAlpha"
         in="fbSourceGraphic"
         values="0 0 0 -1 0 0 0 0 -1 0 0 0 0 -1 0 0 0 0 1 0"
         id="feColorMatrix31" /><feColorMatrix
         id="feColorMatrix32"
         values="1 0 0 0 0 0 1 0 0 0 0 0 1 0 0 -0.21 -0.72 -0.07 2 0 "
         result="fbSourceGraphic"
         in="fbSourceGraphic" /><feColorMatrix
         result="fbSourceGraphicAlpha"
         in="fbSourceGraphic"
         values="0 0 0 -1 0 0 0 0 -1 0 0 0 0 -1 0 0 0 0 1 0"
         id="feColorMatrix36" /><feColorMatrix
         id="feColorMatrix37"
         values="-1 0 0 0 1 0 -1 0 0 1 0 0 -1 0 1 0.21 0.72 0.07 1 0 "
         result="color2"
         in="fbSourceGraphic" /></filter></defs><g
     inkscape:label="Layer 1"
     inkscape:groupmode="layer"
     id="layer1"><path
       id="rect1"
       style="display:inline;stroke-width:0.310415;fill-opacity:1;fill:#181818"
       d="m 21.40439,0 h 92.65788 a 21.40439,21.40439 45 0 1 21.40439,21.40439 v 92.65788 a 21.40439,21.40439 135 0 1 -21.40439,21.40439 H 21.40439 A 21.40439,21.40439 45 0 1 0,114.06227 V 21.40439 A 21.40439,21.40439 135 0 1 21.40439,0 Z"
       sodipodi:nodetypes="ccccc"
       inkscape:label="bg"
       inkscape:path-effect="#path-effect39"
       inkscape:original-d="M 0,0 H 135.46666 V 135.46666 H 0 Z" /><g
       id="g39"
       transform="matrix(1.1741925,0,0,1.1741925,-11.79864,-11.79864)"><path
         id="rect27"
         style="opacity:1;fill:#ffffff;stroke:none;stroke-width:1.85787;stroke-dasharray:none"
         d="M 59.850847,11.914581 V 47.6532 a 4.0894394,4.0894394 135 0 1 -4.089439,4.089439 h -9.516521 a 4.8377941,4.8377941 135 0 0 -4.837794,4.837794 v 9.171344 a 4.0894394,4.0894394 45 0 0 4.089439,4.089439 H 89.96942 a 4.0894394,4.0894394 135 0 0 4.089439,-4.089439 V 55.832078 A 4.0894394,4.0894394 45 0 0 89.96942,51.742639 H 79.705264 A 4.0894394,4.0894394 45 0 1 75.615825,47.6532 V 11.914581 A 4.0894394,4.0894394 45 0 0 71.526386,7.8251419 h -7.5861 a 4.0894394,4.0894394 135 0 0 -4.089439,4.0894391 z"
         sodipodi:nodetypes="ccccccccc"
         inkscape:path-effect="#path-effect30"
         inkscape:original-d="M 59.850847,7.8251419 V 51.742639 H 41.407093 V 69.841216 H 94.058859 V 51.742639 H 75.615825 V 7.8251419 Z"
         transform="translate(3.5336956e-4,11.085979)"
         inkscape:label="handle" /><path
         id="path18"
         style="fill:#ffffff;stroke-width:0.254199"
         d="m 92.812109,73.134075 c -42.763986,0.05579 -7.689515,0.01038 -50.045007,0.06563 -0.266713,0.059 -0.522863,0.150375 -0.761711,0.272851 6.990783,4.277332 14.748532,8.754335 22.620325,13.104627 0.0014,-0.0036 0.03979,-0.100769 0.03979,-0.100769 -0.0048,0.03413 -0.0135,0.07785 -0.0186,0.112654 1.065156,0.588603 2.125088,1.182465 3.193087,1.765267 9.237918,-5.047537 17.490323,-9.889901 25.721427,-14.951542 -0.234898,-0.120233 -0.487005,-0.210127 -0.749308,-0.268717 z m 1.850533,1.231966 c -6.687338,4.109133 -13.435321,8.101983 -20.781161,12.208557 4.356535,3.346709 8.970683,6.749376 13.732496,10.129096 0.07734,-0.48688 0.155033,-0.93876 0.230476,-1.45624 0.557668,-3.82512 0.575159,-6.542237 0.575159,-6.542237 0.4323,2.927017 0.452338,5.648347 0.496611,8.916767 2.999785,2.112365 6.040505,4.215706 9.149829,6.279726 0.126227,-0.30717 0.179831,-0.64409 0.136942,-1.00045 -1.097976,-9.123166 -2.128842,-18.246466 -3.091801,-27.370432 -0.04476,-0.424095 -0.210858,-0.817023 -0.448551,-1.164787 z m -53.76261,0.07131 c -0.239151,0.347922 -0.404359,0.740695 -0.453202,1.16427 -1.032785,8.9565 -2.076116,17.91121 -3.127975,26.867609 -0.02577,0.29146 -0.0461,0.49576 -0.06976,0.74828 0.01127,0.29139 0.239975,0.44249 0.358118,0.71985 2.678637,-1.81395 5.265139,-3.60495 7.813476,-5.390369 0.130395,-0.46632 0.249986,-0.91236 0.398942,-1.4118 0.939875,-3.15135 1.894975,-5.69164 1.894975,-5.69164 -0.380231,1.86982 -0.784581,4.04913 -1.103808,6.26318 5.244792,-3.696167 10.276943,-7.370521 15.17168,-11.1342 C 54.561989,82.559536 47.431356,78.4267 40.900032,74.437354 Z m 22.254972,12.895854 c -5.399146,4.157296 -10.950879,8.203286 -16.789156,12.288136 -0.04043,0.349128 -0.08984,0.700819 -0.123506,1.046969 -0.286828,2.94934 -0.187586,4.74855 -0.187586,4.74855 4.045069,0.002 12.143445,0.005 12.143445,0.005 -0.06171,-2.44496 1.477656,-6.605199 3.508313,-11.579649 1.179249,-2.88878 1.926511,-4.762574 2.410189,-5.982066 -0.318801,-0.175581 -0.644299,-0.351638 -0.961699,-0.5271 z m 9.359119,0.0036 c -1.541527,0.855981 -3.097168,1.710234 -4.671033,2.564702 -1.157432,-0.628218 -2.299417,-1.257281 -3.44165,-1.885673 -0.575419,3.0303 -1.677967,7.41011 -2.395719,10.97969 -0.447531,2.225696 -0.617438,3.735966 -0.597897,4.884466 0.01792,1.05319 0.190686,1.54306 0.190686,1.54306 4.183144,0.0111 12.539287,0.0305 12.539287,0.0305 0.122466,-1.70767 1.174542,-4.46085 2.521809,-7.918386 1.216553,-3.12208 2.058637,-5.47578 2.069125,-5.50509 -2.116275,-1.571971 -4.194504,-3.139296 -6.214608,-4.693259 z m 6.217708,4.695319 c -0.437752,2.4281 -1.411881,6.30844 -1.954919,9.126066 -0.555264,2.88106 -0.388295,4.27224 -0.383439,4.31137 3.3251,6e-5 6.650097,-0.009 9.975102,-0.0212 0.06775,-1.94456 0.50859,-4.26846 0.994254,-7.159776 -2.946279,-2.08045 -5.825102,-4.17229 -8.630998,-6.25647 z m 10.212297,7.36389 c 0.0026,0.13453 0.0033,0.249825 0.0062,0.386545 0.07441,3.483661 0.413744,5.516491 0.436666,5.650821 2.034503,-0.0106 4.069045,-0.0129 6.103503,-0.0305 0.621031,-0.005 1.179104,-0.16428 1.626258,-0.4315 -2.766262,-1.83528 -5.490858,-3.69985 -8.172628,-5.575376 z m -44.096533,1.292956 c -2.053254,1.42622 -4.141373,2.85802 -6.27972,4.30413 0.450419,0.26252 1.010609,0.41594 1.632458,0.41599 1.182206,1.1e-4 2.36435,0.006 3.546554,0.007 0.298748,-1.3475 0.642812,-2.91562 1.100708,-4.72736 z"
         inkscape:label="brush"
         transform="translate(7.3751993e-8,11.085979)" /></g></g></svg>
